<svg xmlns="http://www.w3.org/2000/svg" xmlns:xlink="http://www.w3.org/1999/xlink" version="1.1" x="0px" y="0px" viewBox="-105 347 100 100"  xml:space="preserve"><path d="M-55.5,416.9c0-5.9-2.9-10.5-6.5-10.5c-3.7,0-6.5,4.6-6.5,10.5c0,5.9,2.9,10.5,6.5,10.5c1.2,0,5.2,0,6.5,0  c2.8,0,5.1-2.7,6.1-6.5l-6.2-0.8C-55.5,419.1-55.5,418.1-55.5,416.9z M-61.9,424.3c-1.6,0-3.4-3.1-3.4-7.4c0-4.3,1.8-7.4,3.4-7.4  s3.4,3.1,3.4,7.4C-58.5,421.2-60.3,424.3-61.9,424.3z"></path><path d="M-86.9,413.5c0-4.6-1.6-9.1-4.6-9.1s-4.6,4.6-4.6,9.1c0,4.6,1.6,9.1,4.6,9.1c0.9,0,3.7,0,4.6,0c2.4,0,4-3,4.5-6.5l-4.5-0.5  C-86.9,415-86.9,414.3-86.9,413.5z M-91.5,419.8c-0.5-0.2-1.7-2.4-1.7-6.2c0-3.8,1.2-6,1.7-6.2c0.5,0.2,1.7,2.4,1.7,6.2  C-89.8,417.3-91,419.6-91.5,419.8z"></path><path d="M-14.5,377.9c-0.5-2.1-1.4-4-2.9-5.6c-1.1-1-2.3-1.8-3.6-2.4c-3.3-1.5-11-2.8-21.1-3.3c-1.3-0.1-2.4,1.1-2.1,2.4  c0.1,0.6,0.2,1.3,0.3,1.9h5.1c5.9,0,11.7,0.8,17.3,2.5c1.7,0.5,2.9,1.8,3.3,3.5l4.1,18.1c0.2,1.1-0.5,2.1-1.6,2.1l-8.2,0.5  c0,0-17,1.3-18-3.3c-0.6-3.5-2.7-15.9-3.9-23.3c-0.5-2.6-2.8-4.3-5.3-4c-9.8,1.4-32.9,4.8-46.8,7.6c-3.7,0.8-4.3,1.3-4.6,5.1v32.6  c0,0,1.8,0.3,4.9,0.8c0.1-4.9,2.1-10.2,6.1-10.2c4.2,0,6.2,5.5,6.2,10.6c0,0.5,0,0.9-0.1,1.4c4.9,0.8,10.3,1.5,15.5,2.3  c0-0.1,0-0.2,0-0.3c0-6.8,3.4-11.9,8-11.9s8,5.2,8,11.9c0,0.8-0.1,1.7-0.2,2.5c4.8,0.6,8.1,1.1,8.8,1c4.6-0.1,9.3-0.2,13.9-0.4  c0.9,3.3,2.9,5.5,5.3,5.3c1.3,0,3.4,0,4.8,0c2.6,0.3,4.8-2.1,5.6-5.6c0,0,0.5-0.2,1.4-0.2c1.1,0,3.5,0.1,5.2-1.6  c1.1-1.3,1.7-2.9,1.6-4.6C-7.9,409.7-11.9,390.1-14.5,377.9z M-47,396.8c-0.1,0-0.1,0-0.2,0c-0.5,0-0.8-0.3-0.8-0.8l-5.4-19.1  c-0.2-0.8-0.8-1.3-1.6-1.2l-42.2,3.6c-1.7,0.2-1.8,2.5-2.3,2.5s-0.8-0.4-0.8-0.9c0-1.7,1.3-3.1,3-3.3L-53,372c1.7-0.2,3.3,1,3.6,2.7  l3.3,21.1C-46.2,396.3-46.6,396.7-47,396.8z M-26.3,422.7c-0.8,0-1.7-1.1-2.4-2.7c1.6-0.1,3.1-0.1,4.7-0.2  C-24.5,421.7-25.4,422.7-26.3,422.7z"></path></svg>